<svg width="1000" height="1000" viewBox="0 0 1000 1000" xmlns="http://www.w3.org/2000/svg"><defs/><path fill="#234edb" transform="matrix(0.37702816048025234 0 0 0.37702816048025234 31.89615818341108 7.047279476014509)" d="M 687.94939141456 1264.39867166252 L 579.44939141456 1189.69867166252 L 397.84939141456 1316.79867166252 L 341.04939141456 1356.59867166252 C 323.64939141456 1368.79867166252 313.24939141456 1388.69867166252 313.24939141456 1409.99867166252 L 313.24939141456 1490.09867166252 C 313.24939141456 1540.19867166252 369.34939141456 1569.69867166252 410.64939141456 1541.39867166252 L 439.84939141456 1521.39867166252 L 535.64939141456 1455.79867166252 L 566.54939141456 1434.59867166252 L 687.84939141456 1351.49867166252 C 718.44939141456 1330.59867166252 718.54939141456 1285.39867166252 687.94939141456 1264.39867166252 Z"/><g opacity="0.67" transform="matrix(0.37702816048025234 0 0 0.37702816048025234 31.89615818341108 7.047279476014509)"><path fill="#6d9fe8" d="M 687.94939141456 1264.39867166252 L 579.44939141456 1189.69867166252 L 410.74939141456 1073.59867166252 C 369.44939141456 1045.19867166252 313.24939141456 1074.69867166252 313.24939141456 1124.89867166252 L 313.24939141456 1223.79867166252 C 313.24939141456 1245.09867166252 323.64939141456 1265.09867166252 341.14939141456 1277.29867166252 L 397.94939141456 1316.89867166252 L 502.64939141456 1390.09867166252 C 520.84939141456 1405.39867166252 532.44939141456 1428.39867166252 532.44939141456 1453.99867166252 C 532.44939141456 1455.39867166252 532.44939141456 1456.79867166252 532.34939141456 1458.19867166252 L 566.64939141456 1434.69867166252 L 687.94939141456 1351.59867166252 C 718.44939141456 1330.59867166252 718.54939141456 1285.39867166252 687.94939141456 1264.39867166252 Z"/></g><path id="text" transform="matrix(1.0821023321558114 0 0 1.0821023321558114 227.11619849029748 78.09062026858854)" d="M 144.29574925185 359.70585641702 L 120.19974925185 359.70585641702 C 117.38374925185 359.70585641702 115.41574925185 360.24985641702 114.29574925185 361.33785641702 C 113.17574925185 362.42585641702 112.61574925185 364.31385641702 112.61574925185 367.00185641702 L 112.61574925185 376.50585641702 L 137.67174925185 376.50585641702 L 136.71174925185 388.40985641702 L 112.61574925185 388.40985641702 L 112.61574925185 416.15385641702 L 99.27174925185 416.15385641702 L 99.27174925185 361.72185641702 C 99.27174925185 356.66585641702 100.37574925185 353.08185641702 102.58374925185 350.96985641702 C 104.79174925185 348.85785641702 108.58374925185 347.80185641702 113.95974925185 347.80185641702 L 144.29574925185 347.80185641702 L 144.29574925185 359.70585641702 Z M 204.96774925185 371.03385641702 C 204.96774925185 378.64985641702 202.99974925185 384.42585641702 199.06374925185 388.36185641702 C 195.12774925185 392.29785641702 189.57574925185 394.26585641702 182.40774925185 394.26585641702 L 169.25574925185 394.26585641702 L 169.25574925185 416.15385641702 L 155.91174925185 416.15385641702 L 155.91174925185 347.80185641702 L 182.40774925185 347.80185641702 C 189.57574925185 347.80185641702 195.12774925185 349.76985641702 199.06374925185 353.70585641702 C 202.99974925185 357.64185641702 204.96774925185 363.41785641702 204.96774925185 371.03385641702 Z M 191.62374925185 371.03385641702 C 191.62374925185 363.48185641702 188.32774925185 359.70585641702 181.73574925185 359.70585641702 L 169.25574925185 359.70585641702 L 169.25574925185 382.26585641702 L 181.73574925185 382.26585641702 C 184.93574925185 382.26585641702 187.38374925185 381.40185641702 189.07974925185 379.67385641702 C 190.77574925185 377.94585641702 191.62374925185 375.06585641702 191.62374925185 371.03385641702 Z M 262.27974925185 395.99385641702 C 262.27974925185 402.45785641702 259.91174925185 407.52985641702 255.17574925185 411.20985641702 C 250.43974925185 414.88985641702 244.39174925185 416.72985641702 237.03174925185 416.72985641702 C 231.20774925185 416.72985641702 225.57574925185 415.12985641702 220.13574925185 411.92985641702 C 217.44774925185 410.26585641702 215.23974925185 407.91385641702 213.51174925185 404.87385641702 C 211.78374925185 401.83385641702 210.91974925185 398.36185641702 210.91974925185 394.45785641702 L 223.01574925185 393.88185641702 C 223.01574925185 397.33785641702 224.48774925185 400.02585641702 227.43174925185 401.94585641702 C 230.37574925185 403.86585641702 233.63974925185 404.82585641702 237.22374925185 404.82585641702 C 245.22374925185 404.82585641702 249.22374925185 402.00985641702 249.22374925185 396.37785641702 C 249.22374925185 391.76985641702 246.50374925185 389.04985641702 241.06374925185 388.21785641702 L 229.92774925185 387.06585641702 C 224.35974925185 386.23385641702 219.94374925185 384.24985641702 216.67974925185 381.11385641702 C 213.41574925185 377.97785641702 211.78374925185 373.46585641702 211.78374925185 367.57785641702 C 211.78374925185 361.68985641702 214.11974925185 356.82585641702 218.79174925185 352.98585641702 C 223.46374925185 349.14585641702 229.36774925185 347.22585641702 236.50374925185 347.22585641702 C 243.63974925185 347.22585641702 249.38374925185 349.03385641702 253.73574925185 352.64985641702 C 258.08774925185 356.26585641702 260.26374925185 360.92185641702 260.26374925185 366.61785641702 L 248.35974925185 367.19385641702 C 247.27174925185 361.62585641702 243.52774925185 358.84185641702 237.12774925185 358.84185641702 C 233.22374925185 358.84185641702 230.16774925185 359.67385641702 227.95974925185 361.33785641702 C 225.75174925185 363.00185641702 224.64774925185 364.96985641702 224.64774925185 367.24185641702 C 224.64774925185 369.51385641702 225.44774925185 371.30585641702 227.04774925185 372.61785641702 C 228.64774925185 373.92985641702 230.63174925185 374.74585641702 232.99974925185 375.06585641702 L 243.94374925185 376.21785641702 C 256.16774925185 377.88185641702 262.27974925185 384.47385641702 262.27974925185 395.99385641702 Z M 312.00774925185 361.33785641702 L 291.17574925185 422.29785641702 C 290.21574925185 425.04985641702 288.96774925185 427.19385641702 287.43174925185 428.72985641702 C 284.87174925185 431.28985641702 281.28774925185 432.56985641702 276.67974925185 432.56985641702 L 270.82374925185 432.56985641702 L 270.82374925185 421.33785641702 L 274.66374925185 421.33785641702 C 276.45574925185 421.33785641702 277.78374925185 421.03385641702 278.64774925185 420.42585641702 C 279.51174925185 419.81785641702 280.26374925185 418.61785641702 280.90374925185 416.82585641702 L 281.86374925185 414.13785641702 L 265.35174925185 361.33785641702 L 278.50374925185 361.33785641702 L 288.29574925185 399.44985641702 L 298.85574925185 361.33785641702 L 312.00774925185 361.33785641702 Z M 357.03174925185 400.98585641702 L 357.03174925185 402.42585641702 C 356.64774925185 407.22585641702 354.61574925185 410.84185641702 350.93574925185 413.27385641702 C 347.25574925185 415.70585641702 342.66374925185 416.92185641702 337.15974925185 416.92185641702 C 329.03174925185 416.92185641702 323.33574925185 415.44985641702 320.07174925185 412.50585641702 C 317.06374925185 409.81785641702 315.55974925185 405.84985641702 315.55974925185 400.60185641702 L 315.55974925185 399.44985641702 L 326.88774925185 399.44985641702 C 326.88774925185 402.39385641702 327.65574925185 404.40985641702 329.19174925185 405.49785641702 C 330.72774925185 406.58585641702 333.38374925185 407.12985641702 337.15974925185 407.12985641702 C 342.27974925185 407.12985641702 344.83974925185 405.27385641702 344.83974925185 401.56185641702 C 344.83974925185 398.48985641702 343.94374925185 396.44185641702 342.15174925185 395.41785641702 C 341.31974925185 394.90585641702 340.26374925185 394.52185641702 338.98374925185 394.26585641702 L 329.28774925185 392.63385641702 C 320.83974925185 391.28985641702 316.61574925185 386.00985641702 316.61574925185 376.79385641702 C 316.61574925185 371.67385641702 318.48774925185 367.68985641702 322.23174925185 364.84185641702 C 325.97574925185 361.99385641702 330.72774925185 360.56985641702 336.48774925185 360.56985641702 C 349.60774925185 360.56985641702 356.16774925185 366.23385641702 356.16774925185 377.56185641702 L 356.16774925185 378.80985641702 L 345.31974925185 378.80985641702 C 345.19174925185 375.80185641702 344.39174925185 373.75385641702 342.91974925185 372.66585641702 C 341.44774925185 371.57785641702 339.38374925185 371.03385641702 336.72774925185 371.03385641702 C 334.07174925185 371.03385641702 332.07174925185 371.56185641702 330.72774925185 372.61785641702 C 329.38374925185 373.67385641702 328.71174925185 374.84185641702 328.71174925185 376.12185641702 C 328.71174925185 379.76985641702 330.18374925185 381.84985641702 333.12774925185 382.36185641702 L 344.74374925185 384.47385641702 C 352.93574925185 386.00985641702 357.03174925185 391.51385641702 357.03174925185 400.98585641702 Z M 390.91974925185 416.15385641702 L 383.14374925185 416.15385641702 C 378.40774925185 416.15385641702 374.80774925185 414.74585641702 372.34374925185 411.92985641702 C 369.87974925185 409.11385641702 368.64774925185 405.75385641702 368.64774925185 401.84985641702 L 368.64774925185 373.04985641702 L 363.36774925185 373.04985641702 L 363.36774925185 363.54585641702 L 368.64774925185 363.54585641702 L 368.64774925185 352.79385641702 L 381.12774925185 352.79385641702 L 381.12774925185 363.54585641702 L 389.95974925185 363.54585641702 L 389.95974925185 373.04985641702 L 381.12774925185 373.04985641702 L 381.12774925185 401.08185641702 C 381.12774925185 404.08985641702 382.56774925185 405.59385641702 385.44774925185 405.59385641702 L 390.91974925185 405.59385641702 L 390.91974925185 416.15385641702 Z M 442.37574925185 391.67385641702 L 410.40774925185 391.67385641702 C 410.40774925185 396.66585641702 411.19174925185 400.31385641702 412.75974925185 402.61785641702 C 414.32774925185 404.92185641702 417.47974925185 406.07385641702 422.21574925185 406.07385641702 C 425.28774925185 406.07385641702 427.55974925185 405.09785641702 429.03174925185 403.14585641702 C 430.50374925185 401.19385641702 431.23974925185 399.32185641702 431.23974925185 397.52985641702 L 442.47174925185 397.52985641702 C 442.47174925185 404.37785641702 440.63174925185 409.40185641702 436.95174925185 412.60185641702 C 433.27174925185 415.80185641702 428.40774925185 417.40185641702 422.35974925185 417.40185641702 C 416.31174925185 417.40185641702 411.62374925185 416.53785641702 408.29574925185 414.80985641702 C 401.44774925185 411.28985641702 398.02374925185 401.94585641702 398.02374925185 386.77785641702 C 398.02374925185 377.75385641702 399.97574925185 371.14585641702 403.87974925185 366.95385641702 C 407.78374925185 362.76185641702 413.73574925185 360.66585641702 421.73574925185 360.66585641702 C 435.62374925185 360.66585641702 442.56774925185 368.37785641702 442.56774925185 383.80185641702 C 442.56774925185 385.46585641702 442.50374925185 388.08985641702 442.37574925185 391.67385641702 Z M 410.69574925185 383.12985641702 L 431.23974925185 383.12985641702 C 431.23974925185 378.90585641702 430.43974925185 375.83385641702 428.83974925185 373.91385641702 C 427.23974925185 371.99385641702 424.79174925185 371.03385641702 421.49574925185 371.03385641702 C 418.19974925185 371.03385641702 415.57574925185 372.00985641702 413.62374925185 373.96185641702 C 411.67174925185 375.91385641702 410.69574925185 378.96985641702 410.69574925185 383.12985641702 Z M 524.55174925185 416.15385641702 L 512.07174925185 416.15385641702 L 512.07174925185 382.07385641702 C 512.07174925185 378.68185641702 511.67174925185 376.31385641702 510.87174925185 374.96985641702 C 510.07174925185 373.62585641702 508.67974925185 372.95385641702 506.69574925185 372.95385641702 L 495.46374925185 377.65785641702 L 495.46374925185 416.15385641702 L 482.98374925185 416.15385641702 L 482.98374925185 382.07385641702 C 482.98374925185 375.99385641702 480.87174925185 372.95385641702 476.64774925185 372.95385641702 L 466.37574925185 377.65785641702 L 466.37574925185 416.15385641702 L 453.89574925185 416.15385641702 L 453.89574925185 361.33785641702 L 463.20774925185 361.33785641702 L 466.08774925185 367.86585641702 L 480.48774925185 360.76185641702 C 485.47974925185 360.76185641702 489.25574925185 363.19385641702 491.81574925185 368.05785641702 L 509.67174925185 360.76185641702 C 514.66374925185 360.76185641702 518.39174925185 362.44185641702 520.85574925185 365.80185641702 C 523.31974925185 369.16185641702 524.55174925185 373.68985641702 524.55174925185 379.38585641702 L 524.55174925185 416.15385641702 Z M 575.62374925185 400.98585641702 L 575.62374925185 402.42585641702 C 575.23974925185 407.22585641702 573.20774925185 410.84185641702 569.52774925185 413.27385641702 C 565.84774925185 415.70585641702 561.25574925185 416.92185641702 555.75174925185 416.92185641702 C 547.62374925185 416.92185641702 541.92774925185 415.44985641702 538.66374925185 412.50585641702 C 535.65574925185 409.81785641702 534.15174925185 405.84985641702 534.15174925185 400.60185641702 L 534.15174925185 399.44985641702 L 545.47974925185 399.44985641702 C 545.47974925185 402.39385641702 546.24774925185 404.40985641702 547.78374925185 405.49785641702 C 549.31974925185 406.58585641702 551.97574925185 407.12985641702 555.75174925185 407.12985641702 C 560.87174925185 407.12985641702 563.43174925185 405.27385641702 563.43174925185 401.56185641702 C 563.43174925185 398.48985641702 562.53574925185 396.44185641702 560.74374925185 395.41785641702 C 559.91174925185 394.90585641702 558.85574925185 394.52185641702 557.57574925185 394.26585641702 L 547.87974925185 392.63385641702 C 539.43174925185 391.28985641702 535.20774925185 386.00985641702 535.20774925185 376.79385641702 C 535.20774925185 371.67385641702 537.07974925185 367.68985641702 540.82374925185 364.84185641702 C 544.56774925185 361.99385641702 549.31974925185 360.56985641702 555.07974925185 360.56985641702 C 568.19974925185 360.56985641702 574.75974925185 366.23385641702 574.75974925185 377.56185641702 L 574.75974925185 378.80985641702 L 563.91174925185 378.80985641702 C 563.78374925185 375.80185641702 562.98374925185 373.75385641702 561.51174925185 372.66585641702 C 560.03974925185 371.57785641702 557.97574925185 371.03385641702 555.31974925185 371.03385641702 C 552.66374925185 371.03385641702 550.66374925185 371.56185641702 549.31974925185 372.61785641702 C 547.97574925185 373.67385641702 547.30374925185 374.84185641702 547.30374925185 376.12185641702 C 547.30374925185 379.76985641702 548.77574925185 381.84985641702 551.71974925185 382.36185641702 L 563.33574925185 384.47385641702 C 571.52774925185 386.00985641702 575.62374925185 391.51385641702 575.62374925185 400.98585641702 Z"/></svg>